<?xml version="1.0" encoding="UTF-8" standalone="no"?>
<svg
   xmlns:dc="http://purl.org/dc/elements/1.1/"
   xmlns:cc="http://creativecommons.org/ns#"
   xmlns:rdf="http://www.w3.org/1999/02/22-rdf-syntax-ns#"
   xmlns:svg="http://www.w3.org/2000/svg"
   xmlns="http://www.w3.org/2000/svg"
   viewBox="0 0 286.66666 286.66666"
   height="286.66666"
   width="286.66666"
   xml:space="preserve"
   id="svg2"
   version="1.1"><metadata
     id="metadata8"><rdf:RDF><cc:Work
         rdf:about=""><dc:format>image/svg+xml</dc:format><dc:type
           rdf:resource="http://purl.org/dc/dcmitype/StillImage" /></cc:Work></rdf:RDF></metadata><defs
     id="defs6"><clipPath
       id="clipPath18"
       clipPathUnits="userSpaceOnUse"><path
         id="path16"
         d="M 0,215 H 215 V 0 H 0 Z" /></clipPath></defs><g
     transform="matrix(1.3333333,0,0,-1.3333333,0,286.66667)"
     id="g10"><g
       id="g12"><g
         clip-path="url(#clipPath18)"
         id="g14"><g
           transform="translate(165.3164,145.4883)"
           id="g20"><path
             id="path22"
             style="fill:#ffffff;fill-opacity:1;fill-rule:nonzero;stroke:none"
             d="m 0,0 c -0.328,2.427 -1.065,4.851 -2.255,7.413 -0.078,0.169 -0.164,0.322 -0.253,0.469 0.005,0.278 -0.005,0.569 -0.039,0.874 l -0.047,0.431 c -0.189,1.726 -0.403,3.683 -1.17,5.745 -1.106,2.985 -2.447,5.798 -3.744,8.521 l -0.18,0.379 c -0.935,1.965 -2.167,3.59 -3.255,5.023 -0.148,0.195 -0.296,0.39 -0.443,0.585 -0.031,0.047 -0.06,0.095 -0.09,0.142 -0.284,0.448 -0.738,1.166 -1.519,1.827 -0.026,0.042 -0.053,0.087 -0.077,0.126 -0.136,0.223 -0.305,0.5 -0.522,0.805 -0.372,0.524 -0.734,1.058 -1.118,1.623 -0.563,0.829 -1.145,1.687 -1.782,2.545 -0.647,0.872 -1.054,1.625 -1.244,2.3 -0.266,0.942 -0.475,2.051 -0.659,3.49 -0.161,1.254 -0.16,2.451 10e-4,3.66 0.29,2.164 0.681,4.428 1.591,6.333 0.269,0.561 0.636,1.173 1.025,1.822 0.241,0.403 0.491,0.82 0.741,1.262 0.816,1.449 1.62,2.439 2.529,3.117 0.84,0.624 1.287,1.353 1.482,1.674 1.215,1.803 1.035,4.214 -0.451,5.818 l -0.127,0.137 -0.08,0.084 c -0.909,0.979 -2.165,1.5 -3.443,1.5 -0.657,0 -1.32,-0.138 -1.946,-0.423 -0.225,-0.102 -0.449,-0.202 -0.675,-0.303 -0.574,-0.256 -1.168,-0.521 -1.782,-0.825 -0.447,-0.221 -0.862,-0.449 -1.227,-0.65 -0.413,-0.227 -0.803,-0.441 -1.127,-0.585 -2.027,-0.897 -3.761,-2.029 -5.046,-2.916 -1.971,-1.361 -3.334,-3.056 -4.187,-4.213 -0.684,-0.928 -1.24,-1.841 -1.779,-2.724 -0.199,-0.325 -0.397,-0.65 -0.601,-0.972 -0.033,-0.053 -0.064,-0.098 -0.095,-0.143 -0.216,-0.321 -0.578,-0.858 -0.861,-1.564 -0.111,-0.278 -0.223,-0.553 -0.335,-0.827 -0.569,-1.397 -1.215,-2.982 -1.649,-4.729 -0.62,-2.478 -0.452,-4.748 -0.228,-6.861 0.164,-1.539 0.47,-2.961 0.765,-4.335 0.102,-0.478 0.206,-0.955 0.299,-1.433 0.122,-0.608 0.282,-1.203 0.477,-1.772 0.201,-0.585 0.409,-1.166 0.617,-1.747 0.071,-0.198 0.141,-0.396 0.212,-0.594 -0.289,0.069 -0.573,0.142 -0.866,0.207 -1.221,0.27 -2.518,0.498 -4.083,0.717 -0.615,0.087 -1.176,0.118 -1.671,0.147 -0.376,0.021 -0.731,0.042 -0.965,0.08 -0.876,0.147 -1.801,0.218 -2.831,0.218 -0.814,0 -1.575,-0.043 -2.31,-0.084 -0.635,-0.035 -1.236,-0.068 -1.788,-0.068 l -0.163,10e-4 h -0.104 c -0.951,0 -1.769,-0.169 -2.365,-0.293 -0.12,-0.025 -0.24,-0.05 -0.358,-0.072 -1.458,-0.27 -2.883,-0.544 -4.233,-0.814 -3.136,-0.627 -5.771,-1.241 -8.437,-2.203 -0.811,-0.292 -1.673,-0.553 -2.586,-0.829 l -0.436,-0.132 c -0.122,-0.037 -0.312,-0.082 -0.514,-0.13 -0.437,-0.105 -0.981,-0.234 -1.577,-0.449 -2.796,-1.01 -5.555,-2.241 -8.434,-3.765 -0.047,-0.024 -0.102,-0.05 -0.151,-0.075 0.28,0.863 0.628,1.787 1.057,2.804 0.288,0.685 0.548,1.356 0.798,2.005 0.358,0.927 0.695,1.802 1.072,2.599 l 0.173,0.363 c 0.366,0.768 0.782,1.639 1.11,2.64 0.597,1.83 1.113,3.646 1.612,5.403 0.027,0.094 0.055,0.187 0.082,0.282 0.226,0.767 0.536,1.817 0.536,3.079 -0.001,0.52 0.036,1.099 0.075,1.712 0.112,1.787 0.253,4.009 -0.452,6.384 -0.114,0.383 -0.222,0.807 -0.337,1.255 -0.147,0.576 -0.3,1.173 -0.493,1.803 -0.569,1.866 -1.41,3.508 -2.151,4.957 -0.114,0.223 -0.228,0.445 -0.341,0.669 -1.569,3.101 -3.74,5.73 -6.455,7.815 -1.495,1.15 -3.096,1.709 -4.892,1.709 -0.069,0 -0.138,-0.001 -0.208,-0.003 -1.369,-0.034 -2.654,-0.663 -3.52,-1.722 -0.863,-1.054 -1.226,-2.43 -0.995,-3.772 l 0.008,-0.063 c 0.038,-0.3 0.116,-0.927 0.417,-1.639 0.244,-0.58 0.494,-1.142 0.735,-1.685 0.452,-1.017 0.878,-1.978 1.213,-2.912 0.399,-1.113 0.788,-2.29 0.921,-3.351 0.135,-1.066 0.142,-2.255 0.149,-3.514 0.003,-0.507 0.007,-1.013 0.017,-1.519 0.019,-0.941 -0.259,-2.029 -0.682,-3.372 -0.651,-2.067 -2.1,-3.922 -3.431,-5.464 -1.347,-1.56 -2.748,-3.056 -4.233,-4.639 -0.618,-0.66 -1.237,-1.32 -1.85,-1.984 -1.235,-1.336 -2.779,-3.159 -3.911,-5.529 -0.054,-0.081 -0.118,-0.178 -0.184,-0.287 -0.161,-0.266 -0.326,-0.529 -0.491,-0.792 -0.456,-0.726 -0.972,-1.548 -1.431,-2.46 -0.391,-0.775 -0.646,-1.519 -0.851,-2.118 -0.099,-0.292 -0.194,-0.568 -0.279,-0.775 -0.806,-1.939 -1.549,-4.063 -1.6,-6.498 -0.671,-1.913 -0.612,-3.718 -0.498,-4.949 0.05,-0.55 0.106,-1.154 0.172,-1.778 -0.143,-0.043 -0.283,-0.085 -0.433,-0.129 -0.428,-0.126 -0.871,-0.257 -1.335,-0.407 -1.259,-0.411 -2.619,-0.815 -4.281,-1.271 -0.063,-0.014 -0.311,-0.042 -0.491,-0.063 -0.222,-0.026 -0.444,-0.053 -0.664,-0.085 -0.492,-0.071 -0.987,-0.151 -1.482,-0.231 -0.984,-0.159 -1.912,-0.309 -2.776,-0.375 -0.343,-0.027 -0.707,-0.04 -1.081,-0.04 -1.592,0 -3.28,0.234 -5.068,0.482 -0.717,0.099 -1.458,0.201 -2.21,0.291 -0.887,0.105 -1.906,0.407 -2.985,0.726 -0.462,0.136 -0.939,0.278 -1.435,0.413 -1.111,0.302 -2.248,0.777 -3.478,1.452 -0.583,0.32 -1.119,0.513 -1.55,0.667 -0.133,0.048 -0.278,0.099 -0.437,0.161 -0.555,0.217 -1.134,0.322 -1.708,0.322 -1.22,0 -2.418,-0.475 -3.316,-1.368 -1.319,-1.313 -1.74,-3.281 -1.072,-5.018 0.599,-1.559 1.47,-2.801 2.742,-3.908 0.446,-0.387 0.884,-0.747 1.307,-1.095 0.537,-0.442 1.043,-0.859 1.493,-1.272 1.467,-1.346 3.022,-2.354 4.488,-3.27 1.882,-1.177 3.779,-2.069 5.613,-2.931 l 0.278,-0.131 c 0.087,-0.041 0.224,-0.115 0.368,-0.192 0.375,-0.202 0.842,-0.453 1.419,-0.677 1.063,-0.413 2.129,-0.805 3.159,-1.183 0.411,-0.151 0.822,-0.302 1.232,-0.454 0.379,-0.14 0.754,-0.287 1.13,-0.435 0.972,-0.38 1.977,-0.774 3.096,-1.098 2.625,-0.763 4.963,-1.371 7.147,-1.86 1.783,-0.399 3.553,-0.691 5.264,-0.973 0.388,-0.064 0.774,-0.128 1.162,-0.193 0.959,-0.161 1.875,-0.262 2.762,-0.359 l 0.211,-0.023 c 0.066,-2.073 -0.028,-4.175 -0.134,-6.395 -0.047,-1.014 -0.097,-2.062 -0.13,-3.111 -0.072,-2.313 -0.09,-4.977 0.476,-7.743 -0.024,-0.045 -0.054,-0.085 -0.077,-0.131 l -0.04,-0.076 c -0.415,-0.795 -0.931,-1.783 -1.229,-3.021 -0.657,-2.724 -0.867,-5.66 -0.624,-8.725 0.009,-0.108 0.013,-0.218 0.018,-0.329 0.023,-0.474 0.054,-1.124 0.213,-1.861 0.612,-2.812 1.87,-5.464 3.739,-7.883 0.822,-1.062 1.712,-1.894 2.688,-2.508 0.008,-0.047 0.016,-0.095 0.023,-0.143 0.125,-0.783 0.254,-1.593 0.4,-2.408 0.057,-0.314 0.111,-0.628 0.165,-0.943 0.208,-1.199 0.422,-2.437 0.739,-3.716 0.711,-2.859 1.749,-5.682 3.087,-8.393 1.43,-2.899 2.896,-5.719 5.086,-8.346 1.674,-2.006 3.77,-4.289 6.616,-5.99 1.333,-0.797 3.118,-1.816 5.107,-2.643 0.227,-0.095 0.452,-0.175 0.675,-0.25 0.005,-0.183 0.006,-0.365 0.016,-0.548 0.067,-1.246 0.123,-2.524 0.178,-3.76 0.013,-0.287 0.025,-0.573 0.038,-0.86 -0.038,-0.306 -0.046,-0.617 -0.024,-0.929 l 0.121,-1.669 c 0.098,-1.36 0.196,-2.721 0.304,-4.079 0.068,-0.845 0.159,-1.727 0.297,-2.861 0.052,-0.42 0.098,-0.84 0.145,-1.26 0.139,-1.256 0.284,-2.554 0.54,-3.903 0.325,-1.709 0.737,-3.366 1.134,-4.967 0.091,-0.368 0.182,-0.736 0.272,-1.104 0.239,-0.977 0.49,-1.958 0.732,-2.907 0.317,-1.241 0.645,-2.525 0.938,-3.772 0.477,-2.019 1.055,-4.015 1.768,-6.104 0.365,-1.066 0.695,-2.146 1.045,-3.29 0.282,-0.919 0.573,-1.869 0.886,-2.821 0.31,-0.944 0.747,-2.184 1.373,-3.41 1.225,-2.389 3.394,-3.814 5.806,-3.814 1.863,0 3.602,0.86 4.898,2.423 0.078,0.094 0.156,0.182 0.233,0.271 0.601,0.695 1.606,1.856 2.082,3.598 0.028,0.104 0.131,0.357 0.213,0.562 0.094,0.235 0.188,0.471 0.275,0.71 l 0.159,0.434 c 0.799,2.179 1.704,4.649 1.843,7.519 0.02,0.404 0.054,0.782 0.103,1.128 0.126,0.887 0.257,1.778 0.389,2.669 0.157,1.063 0.314,2.126 0.463,3.19 0.172,1.229 0.338,2.461 0.504,3.692 0.237,1.756 0.482,3.573 0.74,5.343 0.497,3.416 0.976,7.086 1.112,10.802 0.019,0.515 0.044,1.03 0.07,1.545 0.016,0.332 0.033,0.664 0.048,0.995 0.017,0.381 0.019,0.742 0.022,1.059 0.002,0.393 0.005,0.838 0.042,1.031 0.359,1.896 0.454,3.701 0.508,5.45 1.965,0.601 3.684,1.478 5.229,2.272 0.625,0.321 1.215,0.624 1.795,0.897 0.018,0.008 0.035,0.016 0.052,0.024 0.334,0.162 0.643,0.359 0.943,0.599 0.325,0.253 0.649,0.509 0.972,0.765 0.703,0.556 1.368,1.082 2.029,1.549 1.932,1.37 3.304,3.029 4.514,4.493 1.748,2.112 3.168,4.314 4.541,6.444 l 0.339,0.525 c 0.719,1.112 1.338,2.365 1.84,3.724 0.109,0.295 0.212,0.592 0.31,0.89 0.166,0.111 0.331,0.232 0.497,0.377 0.369,0.321 0.767,0.652 1.19,1.001 1.314,1.089 2.805,2.324 4.11,3.923 l 0.243,0.298 c 0.322,0.396 0.625,0.77 0.903,1.063 1.69,1.782 3.182,3.861 4.56,6.357 0.527,0.953 0.864,1.869 1.161,2.678 0.048,0.135 0.098,0.269 0.148,0.403 0.181,0.483 0.334,0.951 0.47,1.364 0.144,0.444 0.281,0.863 0.421,1.205 0.705,1.728 1.211,3.541 1.503,5.383 0.117,0.738 0.265,1.493 0.423,2.293 0.099,0.499 0.198,0.999 0.289,1.5 0.075,0.403 0.151,0.804 0.227,1.206 0.493,2.608 1.003,5.304 1.057,8.216 0.002,0.133 0.013,0.314 0.025,0.506 0.04,0.628 0.094,1.488 -0.043,2.453 -0.263,1.857 -0.582,3.697 -0.89,5.478 l -0.179,1.038 c -0.234,1.358 -0.602,2.651 -1.093,3.868 1.278,1.147 2.349,2.32 3.242,3.558 1.153,1.595 1.89,3.048 2.318,4.573 C -0.308,-8.119 0.573,-4.253 0,0" /></g><g
           transform="translate(26.5942,149.8999)"
           id="g24"><path
             id="path26"
             style="fill:#000000;fill-opacity:1;fill-rule:evenodd;stroke:none"
             d="m 0,0 c 0.604,-0.235 1.045,-0.356 1.435,-0.57 1.435,-0.787 2.915,-1.434 4.504,-1.867 1.693,-0.461 3.357,-1.064 5.1,-1.271 3.08,-0.367 6.15,-0.992 9.273,-0.752 1.533,0.117 3.052,0.421 4.576,0.642 0.575,0.083 1.166,0.113 1.723,0.266 1.506,0.414 3.007,0.85 4.492,1.334 1.483,0.483 3.02,0.809 4.417,1.561 0.437,0.236 1,0.221 1.479,0.395 1.241,0.451 2.485,0.903 3.693,1.431 1.01,0.441 1.988,0.964 2.95,1.504 0.856,0.48 1.675,1.027 2.502,1.558 0.466,0.299 0.92,0.619 1.371,0.941 0.752,0.536 1.488,1.093 2.246,1.62 0.504,0.351 1.001,0.741 1.559,0.979 1.485,0.632 2.85,1.474 4.118,2.441 0.93,0.709 1.993,1.098 2.998,1.624 0.844,0.443 1.698,0.869 2.552,1.292 0.635,0.315 1.288,0.595 1.914,0.926 2.533,1.341 5.137,2.525 7.832,3.498 0.601,0.218 1.245,0.317 1.86,0.503 1.089,0.331 2.182,0.652 3.253,1.037 2.527,0.912 5.137,1.491 7.763,2.015 1.387,0.278 2.777,0.544 4.169,0.803 0.633,0.117 1.274,0.294 1.91,0.285 2.125,-0.027 4.246,0.353 6.376,-0.002 0.908,-0.152 1.847,-0.118 2.76,-0.246 1.246,-0.175 2.49,-0.38 3.717,-0.651 1.499,-0.332 2.981,-0.742 4.469,-1.13 0.265,-0.07 0.52,-0.191 0.772,-0.305 0.754,-0.341 1.496,-0.713 2.261,-1.027 0.291,-0.119 0.451,-0.24 0.488,-0.571 0.407,-3.596 0.121,-7.129 -0.842,-10.62 -0.637,-2.307 -1.611,-4.442 -2.994,-6.394 -0.764,-1.077 -1.453,-2.214 -2.293,-3.227 -1.343,-1.621 -2.935,-2.983 -4.784,-4.014 -1.504,-0.839 -3.041,-1.62 -4.527,-2.492 -0.596,-0.35 -1.304,-0.761 -1.402,-1.513 -0.127,-0.965 -0.252,-1.984 0.419,-2.855 0.166,-0.214 0.334,-0.427 0.567,-0.726 -1.171,-0.335 -2.25,-0.662 -3.338,-0.951 -1.601,-0.426 -3.198,-0.877 -4.817,-1.22 -1.834,-0.388 -3.685,-0.697 -5.538,-0.988 -2.037,-0.321 -4.079,-0.631 -6.129,-0.857 -1.985,-0.218 -3.982,-0.367 -5.978,-0.468 -2.027,-0.103 -4.06,-0.156 -6.089,-0.144 -1.599,0.009 -3.198,0.149 -4.796,0.234 -0.327,0.018 -0.624,0.073 -0.972,-0.084 -0.338,-0.152 -0.782,-0.063 -1.178,-0.099 -1.67,-0.15 -3.318,0.164 -4.976,0.222 -1.346,0.047 -2.677,0.296 -4.047,0.125 -0.764,-0.094 -1.599,0.132 -2.364,0.349 -1.188,0.337 -2.389,0.183 -3.585,0.246 -0.58,0.031 -1.161,0.067 -1.74,0.13 -0.947,0.105 -1.899,0.203 -2.839,0.361 -2.064,0.347 -4.138,0.661 -6.179,1.118 -2.306,0.515 -4.594,1.126 -6.863,1.786 -1.328,0.385 -2.603,0.945 -3.903,1.426 -1.441,0.535 -2.887,1.054 -4.32,1.61 -0.514,0.2 -0.987,0.505 -1.489,0.741 -1.835,0.864 -3.669,1.712 -5.401,2.795 -1.336,0.835 -2.638,1.68 -3.802,2.748 -0.93,0.854 -1.939,1.621 -2.892,2.45 C 0.857,-1.54 0.365,-0.95 0,0" /></g><g
           transform="translate(96.8398,47.7959)"
           id="g28"><path
             id="path30"
             style="fill:#000000;fill-opacity:1;fill-rule:evenodd;stroke:none"
             d="m 0,0 c -0.084,1.818 -0.157,3.637 -0.254,5.453 -0.123,2.277 0.193,4.487 1.023,6.611 0.11,0.282 0.372,0.602 0.641,0.708 2.071,0.826 4.184,1.458 6.465,1.141 0.363,-0.05 0.748,-0.047 1.107,0.018 0.779,0.138 1.525,-0.036 2.285,-0.131 1.377,-0.171 2.772,-0.271 4.073,-0.776 0.968,-0.377 1.889,-0.878 2.821,-1.344 0.11,-0.055 0.15,-0.245 0.228,-0.369 0.16,-0.258 0.266,-0.609 0.5,-0.749 0.687,-0.418 0.822,-1.088 0.798,-1.752 -0.094,-2.428 -0.048,-4.866 -0.504,-7.277 -0.168,-0.892 -0.099,-1.832 -0.141,-2.75 -0.038,-0.86 -0.088,-1.72 -0.119,-2.58 -0.126,-3.455 -0.569,-6.876 -1.066,-10.293 -0.44,-3.017 -0.826,-6.044 -1.249,-9.064 -0.272,-1.952 -0.574,-3.902 -0.851,-5.854 -0.072,-0.515 -0.118,-1.037 -0.143,-1.557 -0.111,-2.312 -0.943,-4.433 -1.721,-6.568 -0.202,-0.55 -0.455,-1.084 -0.609,-1.646 -0.236,-0.867 -0.855,-1.451 -1.396,-2.106 -1.088,-1.309 -2.292,-0.663 -2.903,0.531 -0.446,0.872 -0.787,1.805 -1.093,2.738 -0.673,2.046 -1.252,4.124 -1.949,6.161 -0.636,1.863 -1.188,3.745 -1.64,5.662 -0.528,2.247 -1.132,4.478 -1.68,6.72 -0.475,1.938 -0.981,3.874 -1.354,5.832 -0.304,1.599 -0.439,3.231 -0.637,4.85 -0.108,0.888 -0.206,1.777 -0.277,2.667 -0.152,1.907 -0.283,3.814 -0.423,5.72 C -0.045,-0.002 -0.022,-0.001 0,0" /></g><g
           transform="translate(139.7891,188.0234)"
           id="g32"><path
             id="path34"
             style="fill:#000000;fill-opacity:1;fill-rule:evenodd;stroke:none"
             d="M 0,0 C 0.547,0.266 0.633,0.786 0.649,1.355 0.686,2.607 0.644,3.867 1.029,5.086 1.068,5.208 0.998,5.365 0.97,5.574 0.06,5.03 -0.345,4.172 -0.85,3.395 -1.073,3.052 -1.094,2.781 -0.908,2.387 -0.562,1.649 -0.32,0.86 0,0 m 1.902,9.181 c 0.575,1.333 1.069,2.707 1.744,3.987 0.69,1.309 1.558,2.524 2.454,3.95 C 4.105,16.156 2.485,15.001 1.012,13.535 1.77,12.175 1.71,10.692 1.902,9.181 M 0.87,-1.782 c -1.224,-1.071 -1.235,-1.182 -1.302,-3.964 -0.017,-0.768 0.677,-0.79 0.999,-1.191 0.116,-0.144 0.268,-0.258 0.387,-0.398 0.428,-0.499 0.85,-1.004 1.285,-1.522 0.629,0.846 0.782,1.631 0.212,2.576 C 2.045,-5.608 1.847,-4.805 1.585,-4.05 1.336,-3.329 1.124,-2.595 0.87,-1.782 M 0.016,12.501 c -0.848,-0.987 -3.115,-5.294 -3.452,-6.523 0.327,-0.397 0.651,-0.795 0.948,-1.155 0.59,0.688 1.094,1.45 1.767,2.014 0.636,0.534 0.869,1.147 0.919,1.907 0.029,0.432 0.096,0.862 0.098,1.293 0.004,0.816 -0.008,1.633 -0.28,2.464 m 8.212,-28.219 c -1.428,2.134 -2.808,4.196 -4.244,6.34 -0.619,-1.021 -1.021,-2.044 -1.014,-3.22 0.003,-0.442 0.123,-0.715 0.51,-0.983 0.678,-0.468 1.309,-1.019 1.909,-1.587 0.676,-0.64 1.299,-1.339 1.987,-2.054 0.287,0.507 0.558,0.986 0.852,1.504 M -3.787,-6.07 c 0.417,-1.451 0.769,-2.71 1.143,-3.964 0.21,-0.701 0.456,-1.391 0.662,-2.013 1.104,-0.101 2.075,-0.19 3.093,-0.283 0.211,0.641 0.278,1.26 0.017,1.987 -0.402,1.121 -1.273,1.794 -2.07,2.549 -0.767,0.726 -1.733,1.132 -2.845,1.724 m 1.878,0.775 c -0.004,0.317 -0.017,0.522 -0.007,0.726 0.031,0.643 -0.021,1.309 0.126,1.926 0.267,1.121 0.178,2.18 -0.169,3.264 -0.348,1.087 -1.02,1.959 -1.703,2.832 -0.094,0.12 -0.259,0.184 -0.484,0.337 -0.124,-1.123 -0.265,-2.123 -0.336,-3.127 -0.105,-1.482 0.002,-2.956 0.356,-4.403 0.047,-0.194 0.139,-0.442 0.289,-0.532 0.57,-0.343 1.174,-0.631 1.928,-1.023 m 7.334,-19.532 c 0.018,0.152 0.032,0.242 0.04,0.332 0.129,1.495 -0.044,3.033 0.637,4.447 0.19,0.397 0.003,0.71 -0.19,1.035 -0.695,1.174 -1.463,2.286 -2.634,3.047 -0.54,0.351 -1.067,0.735 -1.646,1.007 -0.884,0.414 -1.806,0.749 -2.716,1.105 -0.057,0.021 -0.155,-0.066 -0.243,-0.107 0.319,-1.108 0.678,-2.188 0.935,-3.292 0.266,-1.138 0.413,-2.303 0.66,-3.445 0.048,-0.228 0.269,-0.465 0.474,-0.607 0.606,-0.421 1.279,-0.754 1.863,-1.201 0.945,-0.724 1.842,-1.511 2.82,-2.321 M 4.91,-35.621 c 0.735,0.66 1.513,1.356 2.286,2.056 0.138,0.123 0.294,0.244 0.383,0.399 0.096,0.17 0.217,0.408 0.167,0.566 -0.303,0.967 -0.523,1.99 -1.011,2.86 -0.796,1.417 -1.594,2.862 -2.835,3.977 -0.135,0.122 -0.25,0.273 -0.353,0.424 -0.724,1.053 -1.786,1.632 -2.922,2.166 -0.046,-0.14 -0.097,-0.225 -0.099,-0.31 -0.024,-2.129 -0.121,-4.248 -0.687,-6.317 -0.104,-0.38 0.102,-0.561 0.367,-0.757 0.417,-0.309 0.872,-0.594 1.212,-0.979 1.178,-1.329 2.311,-2.697 3.492,-4.085 m 4.48,18.525 c -0.831,-1.209 -1.34,-2.402 -1.744,-3.623 -0.534,-1.611 -0.926,-3.256 -0.978,-4.977 -0.017,-0.539 0.091,-0.919 0.394,-1.347 0.872,-1.231 1.75,-2.464 2.232,-3.922 0.061,-0.184 0.206,-0.341 0.332,-0.542 1.762,1.33 3.729,2.126 5.832,3.024 -1.34,1.838 -1.438,4.066 -2.603,5.895 -1.134,1.778 -1.98,3.74 -3.465,5.492 M -1.949,-48.677 c 0.221,0.104 0.488,0.267 0.777,0.358 1.726,0.547 3.454,1.089 5.191,1.604 0.321,0.095 0.592,0.165 0.624,0.551 0.06,0.768 0.233,1.546 0.159,2.3 -0.284,2.868 -0.902,5.654 -2.591,8.072 -0.858,1.229 -1.609,2.562 -2.974,3.418 -0.422,-0.986 -0.911,-1.946 -1.249,-2.956 -0.552,-1.653 -1.321,-3.184 -2.337,-4.592 -0.26,-0.363 -0.323,-0.708 -0.172,-1.122 0.398,-1.096 0.798,-2.191 1.168,-3.297 0.477,-1.421 0.925,-2.853 1.404,-4.336 m -13.671,-1.327 c 2.531,-3.726 4.57,-7.799 8.349,-10.495 0.296,0.471 0.605,0.863 0.812,1.303 0.538,1.138 0.994,2.316 1.551,3.444 0.879,1.775 0.944,3.679 0.946,5.588 0.002,1.43 -0.423,2.796 -0.873,4.14 -0.385,1.146 -0.835,2.27 -1.252,3.393 -3.069,-2.658 -6.096,-5.196 -9.533,-7.373 m 31.626,19.254 c -0.783,-0.243 -1.588,-0.426 -2.34,-0.737 -2.472,-1.025 -4.633,-2.545 -6.598,-4.343 -0.447,-0.409 -0.821,-0.912 -1.164,-1.415 -0.133,-0.194 -0.199,-0.568 -0.102,-0.761 0.442,-0.873 0.581,-1.812 0.722,-2.755 0.205,-1.367 0.431,-2.732 0.589,-4.105 0.103,-0.898 0.191,-1.113 1.045,-1.389 0.377,-0.121 0.78,-0.17 1.176,-0.226 0.456,-0.065 0.92,-0.082 1.375,-0.157 1.058,-0.174 2.111,-0.369 3.185,-0.56 0.105,0.173 0.201,0.295 0.259,0.432 0.848,1.985 1.666,3.981 2.092,6.109 0.09,0.45 0.166,0.907 0.194,1.365 0.101,1.655 0.152,3.313 0.273,4.965 0.091,1.234 -0.407,2.333 -0.706,3.577 m -3.055,-19.07 c -0.259,0.093 -0.452,0.19 -0.655,0.232 -1.175,0.239 -2.346,0.52 -3.531,0.679 -1.127,0.152 -2.275,0.332 -3.408,0.047 -2.058,-0.519 -4.127,-1.025 -6.062,-1.913 -0.644,-0.295 -1.321,-0.716 -1.232,-1.645 0.018,-0.178 -0.064,-0.363 -0.089,-0.545 -0.353,-2.594 -1.255,-5.01 -2.386,-7.349 -0.263,-0.544 -0.57,-1.066 -0.844,-1.572 0.097,-0.109 0.13,-0.166 0.18,-0.198 2.148,-1.457 4.555,-2.301 7.044,-2.937 0.207,-0.053 0.509,0.008 0.685,0.132 0.63,0.444 1.238,0.922 1.83,1.415 1.263,1.051 2.311,2.305 3.324,3.589 0.284,0.36 0.599,0.704 0.82,1.1 0.503,0.903 0.886,1.879 1.443,2.743 1.012,1.57 1.621,3.314 2.349,5.009 0.168,0.389 0.341,0.777 0.532,1.213 M 10.6,20.255 C 10.472,20.076 10.378,19.85 10.209,19.725 8.57,18.503 7.387,16.909 6.395,15.15 5.76,14.025 5.037,12.944 4.482,11.782 3.315,9.34 2.829,6.713 2.473,4.045 2.255,2.408 2.262,0.784 2.468,-0.833 c 0.179,-1.402 0.415,-2.812 0.798,-4.169 0.392,-1.393 1.121,-2.649 1.993,-3.825 0.988,-1.332 1.881,-2.735 2.841,-4.087 0.421,-0.592 0.696,-1.276 1.325,-1.743 0.399,-0.297 0.629,-0.821 0.941,-1.238 1.165,-1.55 2.389,-3.061 3.23,-4.828 1.334,-2.803 2.678,-5.595 3.761,-8.516 0.618,-1.66 0.762,-3.359 0.953,-5.063 0.071,-0.632 -0.193,-1.302 -0.315,-1.952 -0.062,-0.327 -0.091,-0.678 -0.234,-0.968 -0.439,-0.882 -0.105,-1.829 -0.284,-2.735 -0.177,-0.897 -0.155,-1.835 -0.355,-2.726 -0.505,-2.255 -1.087,-4.489 -2.122,-6.582 -0.914,-1.849 -1.845,-3.698 -2.612,-5.611 -0.943,-2.35 -2.515,-4.302 -3.833,-6.41 -0.931,-1.489 -2.159,-2.774 -3.517,-3.913 -0.183,-0.153 -0.303,-0.38 -0.466,-0.56 -0.957,-1.048 -2.132,-1.364 -3.514,-1.094 -1.705,0.332 -3.313,0.904 -4.843,1.728 -1.213,0.653 -2.496,1.183 -3.686,1.875 -0.843,0.491 -1.604,1.137 -2.363,1.76 -0.714,0.587 -1.396,1.214 -2.055,1.863 -0.458,0.453 -0.876,0.953 -1.264,1.468 -1.188,1.575 -2.377,3.15 -3.517,4.76 -0.675,0.951 -1.291,1.949 -1.867,2.963 -0.235,0.415 -0.327,0.923 -0.431,1.4 -0.118,0.541 0.002,0.91 0.553,1.288 2.005,1.379 4.199,2.416 6.293,3.631 1.53,0.887 2.99,1.841 3.961,3.379 0.131,0.207 0.299,0.395 0.474,0.567 0.87,0.849 1.58,1.803 2.089,2.915 0.645,1.4 1.369,2.764 1.991,4.174 0.826,1.876 1.151,3.896 1.509,5.896 0.437,2.438 0.628,4.925 0.119,7.348 -0.523,2.493 -0.887,5.044 -1.879,7.425 -0.106,0.253 -0.129,0.539 -0.22,0.799 -0.354,1.013 -0.727,2.02 -1.075,3.035 -0.13,0.377 -0.234,0.767 -0.311,1.158 -0.352,1.781 -0.81,3.553 -1.002,5.352 -0.183,1.728 -0.325,3.468 0.114,5.23 0.429,1.722 1.137,3.317 1.788,4.943 0.134,0.335 0.37,0.632 0.566,0.943 0.723,1.144 1.389,2.331 2.189,3.418 0.871,1.181 1.829,2.275 3.076,3.136 1.369,0.945 2.755,1.813 4.277,2.485 0.868,0.385 1.681,0.897 2.534,1.32 0.763,0.377 1.547,0.711 2.322,1.064 0.067,-0.072 0.133,-0.143 0.2,-0.215" /></g><g
           transform="translate(140.5977,79.8574)"
           id="g36"><path
             id="path38"
             style="fill:#000000;fill-opacity:1;fill-rule:evenodd;stroke:none"
             d="m 0,0 c 0.1,0.592 0.199,1.092 0.268,1.597 0.178,1.313 0.38,2.625 0.499,3.945 0.061,0.682 0.243,1.103 0.952,1.373 1.487,0.568 2.864,1.362 3.615,2.861 0.496,0.991 0.943,2.012 1.318,3.053 0.743,2.063 1.288,4.186 1.508,6.368 0.229,2.274 -0.302,4.405 -1.532,6.337 -0.799,1.253 -2.029,1.727 -3.46,1.807 -1.217,0.069 -2.389,-0.077 -3.498,-0.612 -0.188,-0.091 -0.404,-0.122 -0.612,-0.181 -0.129,0.821 0.778,11.666 1.143,13.758 2.584,-0.087 4.207,1.544 5.736,3.31 0.968,1.119 1.875,2.291 2.846,3.408 0.176,0.203 0.515,0.298 0.797,0.365 0.625,0.148 1.258,0.266 1.894,0.355 0.218,0.03 0.528,0.011 0.668,-0.12 0.373,-0.353 0.751,-0.739 0.996,-1.184 0.734,-1.33 1.203,-2.765 1.461,-4.262 0.365,-2.123 0.745,-4.244 1.047,-6.377 0.103,-0.722 -0.015,-1.476 -0.028,-2.215 -0.055,-2.934 -0.678,-5.789 -1.206,-8.657 -0.24,-1.304 -0.525,-2.6 -0.733,-3.908 -0.238,-1.5 -0.641,-2.942 -1.214,-4.348 -0.358,-0.879 -0.606,-1.801 -0.939,-2.691 -0.31,-0.831 -0.594,-1.686 -1.021,-2.458 C 9.431,9.58 8.186,7.749 6.648,6.129 6.161,5.614 5.722,5.056 5.272,4.507 3.897,2.823 2.139,1.559 0.516,0.146 0.419,0.062 0.245,0.065 0,0" /></g><g
           transform="translate(83.5122,193.8794)"
           id="g40"><path
             id="path42"
             style="fill:#000000;fill-opacity:1;fill-rule:evenodd;stroke:none"
             d="m 0,0 c -0.052,-0.224 -0.109,-0.335 -0.096,-0.437 0.156,-1.18 0.001,-2.346 -0.306,-3.468 -0.174,-0.635 0.046,-0.961 0.462,-1.346 0.474,0.762 0.915,1.473 1.343,2.16 -0.402,0.45 -0.318,0.472 -0.491,1.146 C 0.746,-1.3 0.601,-0.595 0,0 M 2.17,3.812 C 1.167,1.795 1.281,-0.06 2.401,-1.944 2.815,-1.571 3.388,-1.369 3.239,-0.646 2.959,0.713 2.696,2.075 2.417,3.434 2.395,3.536 2.296,3.623 2.17,3.812 m -4.06,7.759 c -0.08,-0.039 -0.16,-0.078 -0.239,-0.117 0.18,-0.545 0.329,-1.102 0.547,-1.631 0.831,-2.007 1.402,-4.065 1.373,-6.26 -0.007,-0.448 0.087,-0.889 0.423,-1.284 0.383,0.91 0.684,1.773 1.105,2.574 0.267,0.506 0.235,0.906 -0.024,1.366 -0.876,1.554 -1.733,3.12 -2.615,4.672 -0.144,0.253 -0.378,0.455 -0.57,0.68 M 2.457,-9.814 c 0.38,2.225 1.407,4.239 0.941,6.534 C 3.224,-3.362 3.103,-3.392 3.016,-3.464 1.995,-4.313 1.47,-5.497 0.898,-6.648 0.848,-6.748 0.842,-6.89 0.865,-7.002 c 0.211,-0.984 0.433,-1.966 0.674,-3.044 0.264,0.067 0.575,0.146 0.918,0.232 m -2.705,-0.93 c -0.245,2.518 -0.497,3.489 -1.044,3.967 -0.135,-0.423 -0.244,-0.828 -0.392,-1.22 -0.677,-1.782 -1.723,-3.33 -3.07,-4.667 -0.339,-0.335 -0.422,-0.649 -0.243,-1.068 0.107,-0.247 0.195,-0.502 0.341,-0.884 1.154,1.768 2.612,3.015 4.408,3.872 m 1.766,-1.818 c -0.056,0.067 -0.11,0.133 -0.166,0.2 -0.703,-0.277 -1.406,-0.549 -2.106,-0.831 -1.34,-0.54 -2.144,-1.714 -3.121,-2.678 -0.174,-0.172 -0.293,-0.5 -0.276,-0.745 0.05,-0.719 0.183,-1.434 0.295,-2.238 0.877,0.298 1.649,0.592 2.44,0.814 0.305,0.086 0.472,0.221 0.597,0.493 0.503,1.086 1.023,2.163 1.533,3.245 0.272,0.578 0.536,1.16 0.804,1.74 M -9.264,-30.951 c 0.912,0.877 1.575,1.764 2.639,2.143 0.083,0.03 0.148,0.109 0.224,0.162 0.525,0.374 1.028,0.784 1.583,1.106 0.41,0.24 0.626,0.539 0.722,0.994 0.153,0.72 0.286,1.456 0.549,2.138 0.475,1.226 0.732,2.543 1.482,3.658 0.009,0.013 -0.017,0.049 -0.055,0.157 -0.509,-0.158 -1.071,-0.239 -1.536,-0.494 -1.824,-1.002 -3.468,-2.209 -4.49,-4.114 -0.439,-0.82 -0.704,-1.693 -1.044,-2.544 -0.419,-1.052 -0.206,-2.017 -0.074,-3.206 m 2.895,16.177 c -2.279,-2.387 -4.524,-4.738 -6.717,-7.036 0.746,-1.188 1.457,-2.32 2.202,-3.507 1.49,2.249 2.985,4.47 5.575,5.679 -0.659,1.6 -0.411,3.333 -1.06,4.864 m -7.166,-23.828 c 0.86,1.624 1.636,3.162 2.485,4.658 0.327,0.576 0.471,1.132 0.32,1.76 -0.237,0.99 -0.38,2.022 -0.767,2.952 -0.767,1.844 -1.671,3.632 -2.528,5.439 -0.045,0.097 -0.175,0.154 -0.343,0.295 -0.459,-0.931 -0.876,-1.817 -1.329,-2.683 -0.224,-0.43 -0.303,-0.808 0.072,-1.068 -0.284,-0.249 -0.657,-0.422 -0.769,-0.7 -0.481,-1.192 -1.153,-2.324 -1.198,-3.666 -0.012,-0.361 -0.182,-0.715 -0.248,-1.077 -0.202,-1.114 -0.388,-2.23 -0.587,-3.388 1.68,-0.866 3.287,-1.694 4.892,-2.522 m 8.473,53.534 c 0.925,0.023 1.561,-0.305 2.12,-0.735 2.18,-1.675 3.874,-3.739 5.124,-6.209 C 2.989,6.391 3.85,4.826 4.374,3.109 4.679,2.111 4.896,1.086 5.192,0.086 c 0.665,-2.238 0.181,-4.507 0.183,-6.76 0,-0.692 -0.246,-1.394 -0.438,-2.074 -0.498,-1.749 -0.995,-3.499 -1.56,-5.227 -0.276,-0.845 -0.684,-1.649 -1.065,-2.457 -0.737,-1.561 -1.284,-3.2 -1.952,-4.787 -0.827,-1.964 -1.537,-3.967 -1.959,-6.041 -0.359,-1.766 -0.753,-3.557 -0.533,-5.398 0.028,-0.237 -0.049,-0.608 -0.215,-0.725 -0.69,-0.489 -1.432,-0.906 -2.205,-1.38 -0.381,1.447 -0.397,2.866 -0.207,4.501 -0.492,-0.387 -0.828,-0.687 -1.197,-0.935 -1.069,-0.72 -1.917,-1.672 -2.582,-2.741 -0.293,-0.471 -0.633,-0.878 -0.949,-1.319 -0.315,-0.441 -0.487,-0.988 -0.702,-1.496 -0.067,-0.158 -0.061,-0.345 -0.108,-0.513 -0.062,-0.219 -0.134,-0.437 -0.217,-0.649 -0.398,-1.016 -1.284,-1.495 -2.166,-1.992 -0.454,-0.257 -0.869,-0.581 -1.259,-0.847 -1.506,0.898 -2.978,1.775 -4.597,2.741 -0.192,-1.704 0.203,-3.093 0.873,-4.548 -0.448,-0.18 -0.856,-0.359 -1.275,-0.506 -0.401,-0.141 -0.814,-0.248 -1.263,-0.383 -0.387,0.357 -0.404,0.868 -0.465,1.34 -0.134,1.039 -0.234,2.082 -0.329,3.126 -0.102,1.111 -0.082,2.209 0.37,3.264 0.105,0.248 0.153,0.541 0.147,0.812 -0.04,1.826 0.557,3.491 1.243,5.141 0.352,0.85 0.573,1.76 0.985,2.577 0.511,1.014 1.156,1.96 1.746,2.933 0.095,0.157 0.222,0.298 0.297,0.463 0.785,1.739 1.946,3.21 3.229,4.598 2.071,2.24 4.197,4.433 6.189,6.741 1.833,2.124 3.494,4.386 4.355,7.123 0.502,1.593 0.934,3.196 0.899,4.882 -0.038,1.844 0.029,3.703 -0.201,5.525 -0.187,1.477 -0.655,2.939 -1.16,4.35 -0.591,1.643 -1.361,3.222 -2.042,4.834 -0.074,0.176 -0.073,0.384 -0.124,0.673" /></g><g
           transform="translate(74.0303,91.8652)"
           id="g44"><path
             id="path46"
             style="fill:#000000;fill-opacity:1;fill-rule:evenodd;stroke:none"
             d="m 0,0 c -0.52,5.222 0.143,10.314 -0.023,15.456 -0.223,0.143 -0.469,0.334 -0.742,0.47 -0.302,0.15 -0.622,0.274 -0.946,0.369 -0.994,0.291 -1.668,0.058 -2.213,-0.829 -0.433,-0.708 -0.765,-1.458 -0.833,-2.32 -0.103,-1.325 -0.144,-2.631 0.003,-3.965 0.274,-2.485 0.98,-4.821 2.166,-7 C -2.063,1.215 -1.397,0.3 0,0 m 20.34,20.767 c 0.035,-0.26 0.076,-0.561 0.117,-0.872 -0.652,-0.482 -1.328,-0.336 -1.975,-0.167 -0.652,0.171 -1.289,0.417 -1.923,0.654 -2.216,0.826 -4.452,0.874 -6.711,0.205 C 8.407,20.16 6.964,19.739 5.533,19.282 4.996,19.111 4.627,19.38 4.292,19.68 3.744,20.172 3.246,20.721 2.723,21.243 2.664,21.302 2.58,21.337 2.435,21.431 2.139,20.384 1.813,19.37 1.904,18.342 2.037,16.858 1.96,15.393 1.882,13.916 1.765,11.698 1.718,9.477 1.668,7.257 1.627,5.406 1.594,3.555 1.613,1.705 1.632,-0.27 1.78,-2.231 2.259,-4.163 c 0.503,-2.033 0.859,-4.106 1.422,-6.121 0.512,-1.832 0.996,-3.672 1.78,-5.434 0.65,-1.46 1.137,-2.997 1.969,-4.374 0.747,-1.237 1.546,-2.446 2.352,-3.646 1.018,-1.518 2.259,-2.844 3.599,-4.079 1.711,-1.578 3.517,-2.974 5.793,-3.704 1.06,-0.339 2.103,-0.696 3.203,-0.867 0.142,-0.022 0.272,-0.117 0.413,-0.179 -0.148,-0.63 -0.287,-1.219 -0.455,-1.932 -1.125,0.244 -2.314,0.334 -3.36,0.77 -1.556,0.645 -3.05,1.47 -4.499,2.336 -2.137,1.278 -3.831,3.064 -5.418,4.967 -1.875,2.248 -3.198,4.815 -4.481,7.414 -1.178,2.387 -2.099,4.868 -2.74,7.447 -0.356,1.432 -0.579,2.899 -0.839,4.354 -0.212,1.183 -0.389,2.371 -0.585,3.557 -0.075,0.453 -0.161,0.905 -0.257,1.448 -0.157,0.061 -0.374,0.174 -0.604,0.23 -1.114,0.275 -1.912,1.017 -2.573,1.872 -1.382,1.788 -2.381,3.783 -2.864,6.005 -0.111,0.507 -0.098,1.041 -0.139,1.563 -0.194,2.443 -0.067,4.87 0.507,7.253 0.17,0.705 0.529,1.376 0.869,2.028 0.539,1.036 1.514,1.007 2.477,0.871 0.417,-0.059 0.813,-0.256 1.226,-0.367 0.285,-0.077 0.583,-0.113 0.87,-0.167 0.512,0.749 0.428,1.562 0.455,2.302 0.087,2.368 0.068,4.741 0.083,7.113 0.005,1.014 0.008,2.029 -0.02,3.044 -0.019,0.699 -0.093,1.397 -0.142,2.097 0.565,-0.053 1.097,-0.103 1.714,-0.161 0.173,-0.837 0.353,-1.7 0.541,-2.601 0.068,0.03 0.183,0.058 0.273,0.122 1.695,1.228 3.36,2.502 5.092,3.674 1.012,0.685 2.111,1.255 3.214,1.786 0.447,0.215 1.009,0.226 1.523,0.263 1.841,0.134 3.683,0.255 5.526,0.349 0.488,0.025 0.981,-0.084 1.473,-0.092 0.676,-0.014 1.352,0.009 2.108,0.018 0.821,-0.642 0.533,-1.658 0.581,-2.57 0.027,-0.541 -0.089,-1.09 -0.148,-1.635 -0.048,-0.437 -0.304,-0.625 -0.862,-0.609 -1.296,0.039 -2.59,0.124 -3.885,0.129 -1.76,0.008 -3.519,-0.036 -5.278,-0.069 C 11.897,30.236 11.616,30.196 11.35,30.124 9.302,29.559 7.263,28.959 5.208,28.421 4.327,28.19 3.413,28.079 2.466,27.904 2.334,26.257 2.26,24.57 2.444,22.875 2.509,22.283 2.871,21.879 3.321,21.664 4.272,21.21 5.297,21.076 6.392,21.338 c -0.33,0.435 -0.602,0.833 -0.914,1.197 -0.473,0.553 -0.512,1.236 -0.621,1.9 -0.037,0.225 -0.009,0.23 0.479,0.329 0.138,-0.337 0.263,-0.68 0.415,-1.011 0.444,-0.966 1.253,-1.482 2.238,-1.766 0.881,-0.254 1.483,0.346 2.191,0.576 -0.366,0.825 -0.702,1.515 -0.974,2.23 -0.127,0.337 -0.161,0.719 -0.18,1.084 -0.021,0.4 0.188,0.63 0.652,0.612 -0.286,-1.25 0.393,-2.115 1.209,-2.841 0.64,-0.568 1.401,-0.94 2.359,-0.843 0.819,0.083 1.664,0.001 2.49,-0.087 1.314,-0.139 2.475,-0.704 3.576,-1.413 0.309,-0.2 0.653,-0.344 1.028,-0.538" /></g><g
           transform="translate(122.9922,82.4277)"
           id="g48"><path
             id="path50"
             style="fill:#000000;fill-opacity:1;fill-rule:evenodd;stroke:none"
             d="m 0,0 c -2.275,0.056 -4.037,0.979 -5.502,2.635 -1.667,1.885 -1.914,4.123 -1.86,6.481 0.046,1.988 0.64,3.846 1.554,5.557 0.57,1.067 1.485,1.954 2.278,2.893 0.273,0.325 0.633,0.584 0.976,0.842 1.034,0.777 2.212,1.178 3.496,1.28 0.612,0.049 1.23,0.181 1.831,0.124 C 3.989,19.697 4.947,19.005 5.816,18.203 7.441,16.704 8.359,14.842 8.627,12.649 8.682,12.19 8.764,11.733 8.85,11.278 9.013,10.409 8.89,9.573 8.681,8.718 8.188,6.709 7.276,4.884 6.071,3.248 4.581,1.224 2.557,0.021 0,0" /></g><g
           transform="translate(91.9336,92.5557)"
           id="g52"><path
             id="path54"
             style="fill:#000000;fill-opacity:1;fill-rule:evenodd;stroke:none"
             d="m 0,0 c -0.083,-0.854 -0.119,-1.715 -0.258,-2.559 -0.286,-1.746 -0.971,-3.29 -2.398,-4.434 -0.406,-0.325 -0.745,-0.734 -1.145,-1.069 -1.014,-0.847 -2.163,-1.453 -3.504,-1.424 -0.752,0.016 -1.528,0.201 -2.239,0.459 -0.943,0.339 -1.909,0.605 -2.755,1.239 -1.577,1.182 -2.407,2.738 -2.775,4.622 -0.326,1.669 -0.134,3.315 0.182,4.948 0.114,0.589 0.446,1.142 0.71,1.696 0.679,1.416 1.624,2.636 2.976,3.444 1.415,0.845 2.984,1.36 4.644,1.328 1.012,-0.02 2.04,-0.341 2.841,-0.973 0.886,-0.698 1.681,-1.53 2.434,-2.378 0.85,-0.957 1.105,-2.172 1.198,-3.418 0.037,-0.49 0.017,-0.984 0.022,-1.477 C -0.045,0.002 -0.022,0.001 0,0" /></g><g
           transform="translate(117.1426,57.7236)"
           id="g56"><path
             id="path58"
             style="fill:#000000;fill-opacity:1;fill-rule:evenodd;stroke:none"
             d="m 0,0 c -0.403,0.581 -0.761,1.096 -1.166,1.68 0.369,0.101 0.712,0.271 1.058,0.275 1.016,0.01 1.919,0.423 2.83,0.772 1.494,0.571 3.01,1.12 4.415,1.872 1.212,0.649 2.292,1.55 3.405,2.375 0.468,0.345 0.855,0.797 1.309,1.165 2.012,1.638 3.455,3.756 4.972,5.82 1.542,2.1 2.545,4.443 3.257,6.909 0.529,1.832 0.874,3.717 1.283,5.582 0.145,0.662 0.299,1.332 0.337,2.005 0.05,0.889 -0.021,1.783 -0.016,2.675 0,0.256 -0.004,0.601 0.147,0.747 0.264,0.254 0.474,-0.073 0.694,-0.23 0.347,-0.245 0.691,-0.532 1.082,-0.663 0.875,-0.29 1.667,0.049 2.315,0.604 0.702,0.6 1.332,1.29 1.68,2.182 0.446,1.142 0.976,2.24 1.343,3.427 0.387,1.247 0.636,2.499 0.877,3.769 0.231,1.209 0.123,2.407 -0.091,3.586 -0.306,1.693 -2.143,3.068 -3.869,3.103 -1.401,0.031 -2.506,-0.517 -3.439,-1.497 -0.526,-0.552 -1.025,-1.13 -1.645,-1.816 -0.149,0.863 -0.322,1.609 -0.315,2.396 0.009,1.14 -0.031,2.281 -0.023,3.42 0.009,1.168 0.029,2.336 0.084,3.502 0.08,1.688 0.166,3.378 0.308,5.061 0.128,1.527 0.334,3.047 0.509,4.59 0.498,-0.127 0.939,-0.24 1.413,-0.36 -0.127,-1.742 -0.193,-3.461 -0.393,-5.164 -0.205,-1.747 -0.357,-3.493 -0.37,-5.251 -0.012,-1.697 -0.328,-3.387 -0.289,-5.085 0.077,-0.035 0.155,-0.07 0.233,-0.105 0.247,0.152 0.493,0.307 0.742,0.457 1.418,0.852 2.953,1.273 4.58,0.905 1.352,-0.307 2.385,-1.093 2.805,-2.52 0.166,-0.556 0.452,-1.078 0.624,-1.633 0.371,-1.199 0.374,-2.423 0.22,-3.663 -0.388,-3.138 -1.419,-6.056 -3.01,-8.773 -0.617,-1.054 -1.435,-1.927 -2.66,-2.322 -0.545,-0.176 -1.069,-0.417 -1.6,-0.627 0.004,-0.337 0.049,-0.695 0.006,-1.043 C 23.398,26.172 23.158,24.22 22.763,22.28 22.538,21.186 22.231,20.133 21.852,19.105 21.493,18.133 21.035,17.173 20.473,16.303 19.037,14.081 17.624,11.839 15.932,9.794 14.833,8.465 13.739,7.139 12.31,6.126 11.211,5.348 10.172,4.486 9.106,3.661 9.083,3.643 9.06,3.62 9.032,3.607 6.621,2.475 4.348,1.023 1.702,0.426 1.106,0.291 0.518,0.131 0,0" /></g><g
           transform="translate(97.0791,74.5928)"
           id="g60"><path
             id="path62"
             style="fill:#000000;fill-opacity:1;fill-rule:evenodd;stroke:none"
             d="m 0,0 c -0.065,-0.7 -0.129,-1.305 -0.177,-1.91 -0.075,-0.942 0.116,-1.207 1.028,-1.409 2.253,-0.501 4.537,-0.786 6.839,-0.927 1.23,-0.074 2.463,-0.092 3.692,-0.172 2.127,-0.137 4.24,-0.106 6.336,0.338 0.45,0.096 0.781,0.276 0.994,0.718 0.254,0.525 0.594,1.008 0.881,1.518 0.175,0.312 0.32,0.641 0.507,1.019 C 19.523,-0.831 19.069,-0.832 18.615,-0.843 17.113,-0.875 15.61,-0.905 14.108,-0.95 13.495,-0.969 12.884,-1.065 12.272,-1.052 10.831,-1.018 9.388,-0.97 7.949,-0.87 6.296,-0.755 4.644,-0.596 2.995,-0.422 2.026,-0.319 1.064,-0.152 0,0 m 21.356,-3.973 c 0.865,-0.905 2.227,-1.368 2.624,-2.735 -0.519,-0.343 -1.081,-0.255 -1.696,0.235 -0.406,0.323 -0.82,0.642 -1.262,0.913 -0.952,0.588 -1.977,0.643 -3.031,0.316 -1.49,-0.462 -3.03,-0.533 -4.571,-0.586 -1.2,-0.04 -2.401,-0.068 -3.602,-0.037 -1.663,0.043 -3.325,0.136 -4.986,0.235 -0.394,0.023 -0.786,0.138 -1.17,0.24 -1.366,0.364 -2.735,0.717 -4.091,1.116 -1.023,0.3 -2.013,0.172 -2.996,-0.131 -0.616,-0.191 -1.214,-0.435 -1.819,-0.654 -0.671,0.539 -0.689,0.737 -0.012,1.11 0.836,0.462 1.693,0.887 2.679,0.946 0.276,0.017 0.548,0.087 0.822,0.133 0.041,1.087 0.082,2.149 0.127,3.324 -0.415,0.084 -0.827,0.17 -1.239,0.249 -0.635,0.122 -1.279,0.212 -1.906,0.366 -0.445,0.111 -0.903,0.252 -1.143,0.799 0.131,0.234 0.217,0.48 0.649,0.401 C -3.876,2.014 -2.481,1.785 -1.082,1.584 0.259,1.392 1.609,1.261 2.951,1.076 7.073,0.509 11.209,0.924 15.338,0.911 c 1.448,-0.005 2.897,0.117 4.346,0.204 0.963,0.059 1.869,0.307 2.705,0.835 0.647,0.409 1.382,0.678 2.029,1.089 0.616,0.394 1.224,0.834 1.727,1.358 0.362,0.378 0.731,0.547 1.208,0.523 C 27.874,4.893 28.401,4.854 28.91,4.746 29.416,4.639 29.603,4.292 29.336,3.858 29.035,3.368 28.674,2.847 28.206,2.542 26.996,1.755 25.719,1.067 24.455,0.366 24.165,0.205 23.824,0.117 23.498,0.045 23.036,-0.06 22.759,-0.312 22.595,-0.76 22.216,-1.797 21.804,-2.82 21.356,-3.973" /></g><g
           transform="translate(101.6191,119.4453)"
           id="g64"><path
             id="path66"
             style="fill:#000000;fill-opacity:1;fill-rule:evenodd;stroke:none"
             d="M 0,0 C 1.033,0.054 1.611,-0.415 1.631,-1.314 1.663,-2.732 1.725,-4.152 1.668,-5.568 1.627,-6.61 1.362,-7.644 1.292,-8.687 c -0.13,-1.954 -0.781,-3.778 -1.285,-5.641 -0.249,-0.921 -0.41,-1.866 -0.673,-2.782 -0.296,-1.031 -0.86,-1.975 -0.91,-3.091 -0.012,-0.301 -0.335,-0.578 -0.467,-0.886 -0.553,-1.289 -1.153,-2.562 -1.612,-3.884 -0.587,-1.683 -0.8,-3.447 -0.387,-5.198 0.273,-1.152 0.869,-2.023 2.161,-2.497 1.742,-0.639 3.451,-0.456 5.195,-0.347 0.697,0.044 1.412,0.169 2.015,-0.343 0.494,-0.419 0.495,-0.765 0.085,-1.25 -0.731,-0.865 -1.751,-0.904 -2.71,-0.835 -1.342,0.095 -2.705,0.152 -4.001,0.623 -1.387,0.504 -2.769,0.965 -3.89,2.022 -0.688,0.65 -0.829,1.488 -1.119,2.284 -0.67,1.838 -0.233,3.661 0.193,5.456 0.263,1.104 0.736,2.155 1.055,3.246 0.553,1.887 1.041,3.791 1.594,5.678 0.361,1.234 0.754,2.461 1.193,3.669 0.644,1.771 1.208,3.549 1.39,5.442 0.204,2.113 0.49,4.219 0.745,6.327 C -0.107,-0.456 -0.044,-0.222 0,0" /></g><g
           transform="translate(114.9268,126.814)"
           id="g68"><path
             id="path70"
             style="fill:#000000;fill-opacity:1;fill-rule:evenodd;stroke:none"
             d="m 0,0 c 1.805,-0.03 3.61,-0.063 5.415,-0.09 1.519,-0.022 3.007,-0.205 4.409,-0.837 0.112,-0.05 0.241,-0.067 0.341,-0.131 1.115,-0.712 2.236,-1.414 3.333,-2.152 1.021,-0.687 2.04,-1.381 3.008,-2.138 0.618,-0.484 1.142,-1.087 1.706,-1.64 0.394,-0.387 0.802,-0.763 1.166,-1.178 0.196,-0.224 0.362,-0.502 0.098,-0.821 -0.246,-0.295 -0.491,-0.149 -0.746,-0.043 -0.734,0.306 -1.463,0.625 -2.206,0.913 -1.259,0.492 -2.524,0.97 -3.792,1.44 -1.179,0.436 -2.378,0.823 -3.545,1.29 -0.939,0.374 -1.919,0.456 -2.896,0.499 -2,0.088 -4.001,0.113 -6.002,0.151 -0.679,0.013 -1.358,-0.001 -2.036,-0.018 -0.682,-0.017 -1.063,0.255 -1.185,0.872 -0.129,0.652 -0.261,1.303 -0.385,1.955 -0.046,0.241 -0.091,0.484 -0.107,0.728 -0.044,0.688 0.177,1.002 0.857,1.047 0.852,0.056 1.71,0.03 2.566,0.04 0,0.038 0,0.075 0.001,0.113" /></g><g
           transform="translate(150.1504,128.0371)"
           id="g72"><path
             id="path74"
             style="fill:#000000;fill-opacity:1;fill-rule:evenodd;stroke:none"
             d="m 0,0 c 0.387,0.624 0.705,1.106 0.992,1.605 0.382,0.665 0.755,1.336 1.105,2.018 0.564,1.093 1.136,2.184 1.651,3.3 0.708,1.54 1.414,3.084 2.031,4.66 0.504,1.288 0.906,2.617 1.302,3.943 0.745,2.493 1.031,5.061 1.15,7.767 0.186,-0.177 0.353,-0.27 0.417,-0.409 0.899,-1.934 1.573,-3.933 1.86,-6.061 C 10.912,13.827 10.424,10.926 9.62,8.065 9.305,6.943 8.703,5.922 8.019,4.974 7.001,3.567 5.769,2.374 4.413,1.283 3.517,0.562 2.474,0.408 1.427,0.194 1.016,0.11 0.593,0.079 0,0" /></g><g
           transform="translate(69.9902,129.2495)"
           id="g76"><path
             id="path78"
             style="fill:#000000;fill-opacity:1;fill-rule:evenodd;stroke:none"
             d="m 0,0 c 0.297,-0.446 0.584,-0.899 0.895,-1.335 0.604,-0.853 1.2,-1.712 1.838,-2.539 0.729,-0.941 0.964,-2.046 1.028,-3.174 0.097,-1.685 0.113,-3.376 0.119,-5.064 0.005,-1.789 -0.031,-3.578 -0.07,-5.367 -0.013,-0.576 -0.096,-1.15 -0.157,-1.842 -1.152,0.121 -2.209,0.233 -3.34,0.353 -0.084,0.288 -0.178,0.573 -0.252,0.864 -0.611,2.421 -0.616,4.896 -0.539,7.361 0.106,3.389 0.394,6.774 0.256,10.17 -0.007,0.169 0.027,0.339 0.041,0.508 C -0.121,-0.044 -0.06,-0.022 0,0" /></g><g
           transform="translate(69.1172,131.8672)"
           id="g80"><path
             id="path82"
             style="fill:#000000;fill-opacity:1;fill-rule:evenodd;stroke:none"
             d="M 0,0 C 0.87,-0.08 1.574,-0.19 2.278,-0.193 2.86,-0.196 3.171,-0.476 3.443,-0.933 3.688,-1.345 4,-1.718 4.366,-2.224 4.649,-1.543 4.867,-1.021 5.123,-0.408 5.818,-0.471 6.511,-0.534 7.271,-0.604 7.153,-0.929 7.057,-1.183 6.967,-1.44 6.816,-1.875 6.648,-2.308 6.521,-2.751 6.243,-3.712 6.163,-4.63 7.125,-5.312 c 0.195,-0.139 0.332,-0.36 0.513,-0.562 2.908,0.66 5.331,2.167 7.447,4.193 0.526,0.503 0.996,0.827 1.773,0.669 0.53,-0.109 1.103,-0.01 1.75,-0.003 C 18.399,-1.299 18.233,-1.581 18.015,-1.813 17.051,-2.836 16.084,-3.851 14.861,-4.59 14.236,-4.968 13.674,-5.455 13.097,-5.91 11.813,-6.923 10.264,-7.332 8.73,-7.684 7.792,-7.899 6.78,-7.824 5.803,-7.798 5.55,-7.792 5.237,-7.534 5.067,-7.306 4.348,-6.348 3.679,-5.353 2.979,-4.38 2.357,-3.515 1.701,-2.673 1.095,-1.798 0.714,-1.249 0.396,-0.657 0,0" /></g><g
           transform="translate(121.8066,113.6904)"
           id="g84"><path
             id="path86"
             style="fill:#000000;fill-opacity:1;fill-rule:evenodd;stroke:none"
             d="M 0,0 C 1.168,-0.528 2.229,-0.061 3.246,0.417 3.962,0.754 4.648,1.183 5.099,1.902 5.34,2.288 5.384,2.259 5.886,1.921 5.187,0.97 4.52,-0.011 3.396,-0.579 c 1.565,-0.504 3.071,-0.487 4.583,-0.156 0.086,0.019 0.203,0.055 0.241,0.12 0.21,0.367 0.52,0.569 0.915,0.718 0.369,0.139 0.697,0.386 1.149,0.648 C 10.435,0.516 10.582,0.284 10.717,0.072 10.397,-0.197 10.1,-0.375 9.897,-0.63 8.962,-1.81 7.699,-2.495 6.343,-3.039 5.488,-3.381 4.648,-3.39 3.734,-3.096 c -1.105,0.354 -2.27,0.547 -3.421,0.735 -1.949,0.32 -3.907,0.495 -5.894,0.379 -1.286,-0.075 -2.497,-0.351 -3.676,-0.834 -0.573,-0.235 -0.92,-0.013 -0.812,0.571 0.088,0.474 0.253,0.889 0.738,1.208 0.968,0.636 2.042,0.889 3.137,1.024 1.373,0.17 2.762,0.234 4.146,0.277 1.463,0.046 2.62,1.041 2.823,2.501 C 0.8,2.94 0.933,3.101 1.041,3.32 1.606,2.51 1.377,1.842 0,0" /></g><g
           transform="translate(140.0322,100.043)"
           id="g88"><path
             id="path90"
             style="fill:#000000;fill-opacity:1;fill-rule:evenodd;stroke:none"
             d="M 0,0 C -0.323,0.248 -0.632,0.484 -0.934,0.717 0.356,3.008 1.767,3.726 4.104,3.572 4.259,3.563 4.419,3.422 4.55,3.312 4.664,3.215 4.715,3.017 4.839,2.961 5.723,2.562 5.779,1.734 5.861,0.954 6.048,-0.835 5.929,-2.63 5.357,-4.322 4.971,-5.466 4.569,-6.66 3.646,-7.557 c -0.968,-0.94 -2.161,-1 -3.126,-0.114 -0.412,0.376 -0.412,0.478 0.003,1.066 0.816,-0.728 1.428,-0.649 2.151,0.19 0.831,0.966 1.343,2.03 1.44,3.323 0.075,1.007 0.336,2 0.426,3.007 C 4.578,0.354 4.452,0.834 4.297,1.258 3.95,2.206 2.924,2.543 2.034,2.054 1.291,1.644 0.681,1.103 0.293,0.331 0.241,0.228 0.136,0.15 0,0" /></g><g
           transform="translate(82.4448,110.3828)"
           id="g92"><path
             id="path94"
             style="fill:#000000;fill-opacity:1;fill-rule:evenodd;stroke:none"
             d="M 0,0 C 1.09,0.002 1.809,-0.689 1.81,-1.739 1.811,-2.503 0.83,-3.521 0.119,-3.494 -0.828,-3.458 -1.653,-2.628 -1.651,-1.716 -1.647,-0.55 -1.121,-0.002 0,0" /></g><g
           transform="translate(114.3447,109.9399)"
           id="g96"><path
             id="path98"
             style="fill:#000000;fill-opacity:1;fill-rule:evenodd;stroke:none"
             d="M 0,0 C 1.09,0.002 1.81,-0.689 1.811,-1.739 1.811,-2.503 0.83,-3.52 0.119,-3.494 -0.827,-3.458 -1.653,-2.628 -1.65,-1.715 -1.647,-0.55 -1.12,-0.002 0,0" /></g><g
           transform="translate(73.2554,104.5879)"
           id="g100"><path
             id="path102"
             style="fill:#000000;fill-opacity:1;fill-rule:evenodd;stroke:none"
             d="m 0,0 c -0.439,-0.066 -0.841,-0.085 -1.219,-0.191 -0.614,-0.172 -0.707,-0.309 -0.592,-0.92 0.215,-1.136 0.248,-2.3 0.927,-3.342 0.424,-0.651 0.609,-1.471 0.83,-2.235 0.147,-0.511 0.237,-1.07 -0.291,-1.666 -0.225,0.324 -0.404,0.548 -0.547,0.794 -0.277,0.477 -0.472,1.014 -0.812,1.439 -0.541,0.677 -0.821,1.444 -0.942,2.267 -0.125,0.84 -0.473,1.632 -0.368,2.53 0.138,1.184 0.852,2.173 1.987,2.477 C -0.079,1.409 0.263,1.053 0,0" /></g></g></g></g></svg>